:SAMPLES-PER-SECOND 30
:FULLY-SPECIFIED
:DEGREES
524
root  6.80625 40.8062 -1.71078 -122.124 -88.3793 119.359
RightUpLeg  -0.565937 -9.45737 -7.26906
RightLeg  7.76052 -4.51419 2.51071
RightFoot  -4.65373 -0.128168 1.65302
RightToes  0.00048216 0.542163 -0.142577
Spine  7.02855 -0.362621 -4.55264
Spine1  -7.05217 -0.897059 3.3189
HEad  0.453807 6.12611 0.266126
LeftShoulder1  1.37448 -6.35183 -6.23458
LeftArm  5.28872 8.75573 2.62425
LeftForeArm  -1.42011 2.05891 -11.1002
LeftHand  -0.25398 0.0180481 5.50724
RightShoulder  0.562244 0.97335 4.69895
RightArm  -16.336 -4.30486 2.90756
RightForeArm  -19.6979 4.99884 6.04826
RightHand  -1.81591 6.0357 -18.7028
LeftUpLeg  1.47419 5.27228 2.75405
LeftLeg  5.32318 12.7973 -2.477
LeftFoot  -3.92751 -0.041219 0.906779
LeftToes  1.06246e-005 4.65855e-005 -8.18505e-006
525
root  6.92158 40.8054 -1.68796 -138.406 -88.0092 135.455
RightUpLeg  -0.624886 -9.43113 -7.23014
RightLeg  7.65393 -4.07738 2.54992
RightFoot  -4.38497 -0.128794 1.62624
RightToes  0.00048216 0.542163 -0.142577
Spine  7.32042 -0.272064 -4.88837
Spine1  -6.93772 -0.855125 3.45807
HEad  -1.37334 6.68293 0.406357
LeftShoulder1  1.42707 -5.78065 -7.82627
LeftArm  4.56016 9.35982 1.59382
LeftForeArm  1.14643 2.24763 -10.6157
LeftHand  -0.25398 0.0180481 5.50724
RightShoulder  0.702012 1.39319 6.71425
RightArm  -15.1373 -5.29401 4.42194
RightForeArm  -20.4359 5.26063 6.40809
RightHand  -1.76116 5.58378 -18.85
LeftUpLeg  1.68251 5.39419 2.8675
LeftLeg  5.17535 13.1877 -2.65209
LeftFoot  -3.88996 -0.0319578 0.766654
LeftToes  1.06246e-005 4.65855e-005 -8.18505e-006
526
root  7.0078 40.8014 -1.65478 -146.907 -87.8003 144.006
RightUpLeg  -0.822253 -9.40302 -7.13836
RightLeg  7.5369 -3.81423 2.641
RightFoot  -4.15662 -0.133685 1.67259
RightToes  0.00048216 0.542163 -0.142577
Spine  7.25409 -0.108163 -4.63735
Spine1  -6.62398 -0.633859 2.99768
HEad  -3.31471 6.49483 0.499972
LeftShoulder1  1.39663 -4.98528 -9.00578
LeftArm  3.31643 9.3782 0.637624
LeftForeArm  3.48019 1.40845 -9.97005
LeftHand  -0.25398 0.0180481 5.50724
RightShoulder  0.815526 1.47226 9.01616
RightArm  -14.3584 -6.54013 5.08109
RightForeArm  -21.8706 5.18006 6.58273
RightHand  -1.87022 5.52989 -20.0684
LeftUpLeg  1.57067 5.51324 3.0031
LeftLeg  5.15607 13.3758 -2.75714
LeftFoot  -4.01579 -0.0274684 0.701151
LeftToes  1.06246e-005 4.65855e-005 -8.18505e-006
527
root  7.06884 40.8025 -1.62806 -149.714 -87.8513 146.973
RightUpLeg  -1.06546 -9.29626 -7.00168
RightLeg  7.4464 -3.89068 2.67118
RightFoot  -3.91967 -0.131926 1.61859
RightToes  0.00048216 0.542163 -0.142577
Spine  6.89199 0.035063 -4.36645
Spine1  -6.31626 -0.426705 2.63124
HEad  -4.29788 5.99885 0.486219
LeftShoulder1  1.36411 -4.6742 -9.26204
LeftArm  2.92393 9.15069 -0.411352
LeftForeArm  3.49353 1.58916 -9.83916
LeftHand  -0.25398 0.0180481 5.50724
RightShoulder  0.871558 1.3734 10.6564
RightArm  -14.0486 -7.57043 5.3358
RightForeArm  -21.5976 4.17756 6.41749
RightHand  -1.90097 5.42493 -20.5721
LeftUpLeg  1.24916 5.55272 3.06827
LeftLeg  5.23871 13.4023 -2.728
LeftFoot  -3.99761 -0.0346687 0.816702
LeftToes  1.06246e-005 4.65855e-005 -8.18505e-006
528
root  7.1167 40.812 -1.61017 -147.682 -88.1039 144.981
RightUpLeg  -1.10358 -9.17146 -6.92281
RightLeg  7.32331 -4.24047 2.65956
RightFoot  -3.64066 -0.127907 1.53037
RightToes  0.00048216 0.542163 -0.142577
Spine  6.60736 0.0769532 -4.50388
Spine1  -6.23259 -0.413656 2.91915
HEad  -4.16363 5.77111 0.32684
LeftShoulder1  1.36096 -4.71566 -9.12811
LeftArm  2.73886 9.04421 -0.994943
LeftForeArm  2.83193 2.58101 -9.8188
LeftHand  -0.25398 0.0180481 5.50724
RightShoulder  0.868945 1.24831 11.115
RightArm  -14.1496 -8.1254 5.44366
RightForeArm  -19.6858 2.77245 6.02635
RightHand  -1.88893 5.41361 -20.4674
LeftUpLeg  1.05781 5.53555 3.06801
LeftLeg  5.28237 13.2153 -2.65857
LeftFoot  -3.79127 -0.0448396 0.976714
LeftToes  1.06246e-005 4.65855e-005 -8.18505e-006
529
root  7.15417 40.8227 -1.58453 -143.563 -88.3942 140.739
RightUpLeg  -0.876262 -9.13242 -6.95322
RightLeg  7.09526 -4.57997 2.71911
RightFoot  -3.34889 -0.128193 1.51476
RightToes  0.00048216 0.542163 -0.142577
Spine  6.53472 -0.000995457 -4.79245
Spine1  -6.35423 -0.568492 3.50609
HEad  -3.59272 5.95437 0.121743
LeftShoulder1  1.34655 -4.6687 -9.03701
LeftArm  2.45103 9.1913 -0.60155
LeftForeArm  2.10678 2.9364 -9.71472
LeftHand  -0.25398 0.0180481 5.50724
RightShoulder  0.823199 1.10508 10.6429
RightArm  -14.3789 -8.21327 5.34097
RightForeArm  -17.8002 1.93548 5.69897
RightHand  -1.95864 5.67009 -20.7249
LeftUpLeg  1.11946 5.51955 3.07983
LeftLeg  5.21055 12.9293 -2.66605
LeftFoot  -3.63679 -0.0528434 1.10025
LeftToes  1.06246e-005 4.65855e-005 -8.18505e-006
530
root  7.18038 40.8298 -1.54337 -142.025 -88.5482 139.012
RightUpLeg  -0.564377 -9.15591 -7.03885
RightLeg  6.83374 -4.69488 2.82843
RightFoot  -3.07699 -0.127029 1.4967
RightToes  0.00048216 0.542163 -0.142577
Spine  6.50294 -0.104856 -4.83577
Spine1  -6.48599 -0.703279 3.76504
HEad  -3.06447 6.24083 0.028043
LeftShoulder1  1.30328 -4.51609 -8.78357
LeftArm  2.68816 9.50234 0.517597
LeftForeArm  -0.402889 2.3521 -9.8605
LeftHand  -0.25398 0.0180481 5.50724
RightShoulder  0.754008 0.90956 9.7785
RightArm  -14.5472 -8.01807 4.97201
RightForeArm  -16.5462 2.02942 5.56131
RightHand  -2.05076 5.8951 -21.253
LeftUpLeg  1.33366 5.53112 3.12319
LeftLeg  5.06221 12.7882 -2.76765
LeftFoot  -3.58571 -0.0626276 1.2492
LeftToes  1.06246e-005 4.65855e-005 -8.18505e-006
531
root  7.19976 40.8352 -1.49842 -145.383 -88.4641 142.188
RightUpLeg  -0.378754 -9.1425 -7.10254
RightLeg  6.70949 -4.57253 2.84273
RightFoot  -2.84754 -0.121342 1.40846
RightToes  0.00048216 0.542163 -0.142577
Spine  6.33202 -0.114393 -4.63497
Spine1  -6.48116 -0.681739 3.61
HEad  -2.48983 6.33891 0.138763
LeftShoulder1  1.25904 -4.50157 -8.20259
LeftArm  3.35275 9.73577 1.70299
LeftForeArm  -4.1789 1.77296 -10.239
LeftHand  -0.25398 0.0180481 5.50724
RightShoulder  0.682575 0.691008 8.87219
RightArm  -14.7759 -7.65269 4.45228
RightForeArm  -15.6481 2.61308 5.50611
RightHand  -2.12076 6.03501 -21.6927
LeftUpLeg  1.59777 5.55195 3.13408
LeftLeg  4.8896 12.9162 -2.89427
LeftFoot  -3.49923 -0.0733812 1.41637
LeftToes  1.06246e-005 4.65855e-005 -8.18505e-006
